<svg width="120" viewBox="0 0 68.15663146972656 58.024993896484375"><g><svg data-color="1" xmlns="http://www.w3.org/2000/svg" xmlns:xlink="http://www.w3.org/1999/xlink" version="1.1" x="0px" y="0px" viewBox="15.922002792358398 20.98700523376465 68.15663146972656 58.024993896484375" enable-background="new 0 0 100 100" xml:space="preserve" width="68.15663146972656" height="58.024993896484375" fill="#fff"><g><g><path d="M72.771,79.012c-1.087,0-1.802-0.032-1.802-0.032l-26.001,0.001c-16.016,0-29.046-12.979-29.046-28.934    c0-16.024,13.046-29.06,29.082-29.06S74.084,33.97,74.084,49.928V60.46c0,5.156,3.139,7.466,5.908,9.503    c1.767,1.299,3.435,2.526,3.97,4.332c0.24,0.812,0.108,1.589-0.381,2.245C82.356,78.18,78.718,79.012,72.771,79.012z     M45.003,22.988c-14.933,0-27.082,12.139-27.082,27.06c0,14.852,12.133,26.934,27.046,26.934h26.046    c0.057,0.002,0.732,0.031,1.757,0.031c5.876,0,8.633-0.899,9.208-1.669c0.092-0.124,0.135-0.247,0.065-0.48    c-0.344-1.161-1.685-2.147-3.236-3.289c-2.838-2.088-6.724-4.946-6.724-11.114V49.928C72.084,35.073,59.936,22.988,45.003,22.988z    "></path></g><g><path d="M42.588,58.972L42.588,58.972c-1.112,0-2.41-0.807-2.41-3.079V44.936c0-2.272,1.298-3.079,2.409-3.079    c0.694,0,1.415,0.287,2.142,0.852l5.964,4.634c1.016,0.789,1.598,1.909,1.598,3.072c0,1.163-0.582,2.283-1.598,3.072l-5.964,4.635    C44.003,58.686,43.282,58.972,42.588,58.972z M42.588,43.857c-0.323,0-0.409,0.678-0.409,1.079v10.957    c0,0.401,0.086,1.079,0.41,1.079l0,0c0.084,0,0.4-0.031,0.914-0.43l5.964-4.635c0.532-0.413,0.825-0.943,0.825-1.493    s-0.293-1.08-0.825-1.493l-5.964-4.634C42.988,43.888,42.672,43.857,42.588,43.857z"></path></g></g></svg></g></svg>
